<svg xmlns="http://www.w3.org/2000/svg" version="1.1" xmlns:xlink="http://www.w3.org/1999/xlink" xmlns:svgjs="http://svgjs.com/svgjs" width="61" height="61"><svg xmlns="http://www.w3.org/2000/svg" width="61" height="61" viewBox="0 0 61 61" fill="none"> <path d="M26.5511 55.049C26.5988 55.1853 26.6244 55.3318 26.6295 55.4868H24.2757C24.2859 55.3318 24.3268 55.1853 24.3966 55.049C24.4664 54.9128 24.555 54.7953 24.664 54.6948C24.773 54.5943 24.9007 54.5159 25.0472 54.4563C25.1954 54.3984 25.3521 54.3695 25.519 54.3695C25.7029 54.3695 25.863 54.3984 25.9993 54.4563C26.1356 54.5142 26.2497 54.5943 26.3416 54.6948C26.4336 54.7953 26.5034 54.9128 26.5511 55.049ZM61 0V21.5318V32.2909H58.0381V43.0006C58.0381 43.9748 57.7724 44.726 57.241 45.2574C56.7096 45.787 55.9773 46.0527 55.0439 46.0527C54.1021 46.0527 53.3646 45.7836 52.8332 45.2454C52.3018 44.7072 52.0361 43.9595 52.0361 43.0006V32.2926H46.6216V42.7537C46.6216 43.6155 46.7902 44.605 47.1241 45.7223C47.3318 46.4172 47.7168 47.0917 48.2805 47.7457C48.8443 48.3997 49.4642 48.9056 50.1421 49.2599C50.82 49.6158 51.6648 49.8526 52.6748 49.9718C53.6848 50.091 54.6164 50.1506 55.4714 50.1506C56.9481 50.1506 58.2136 49.9548 59.2679 49.5647C59.6426 49.4268 60.0104 49.2377 60.3698 48.9993L48.3708 61H0V27.2903H5.95608L6.83493 30.1892H12.5168L5.91861 12.6309H0L12.6309 0H61ZM26.8816 16.9655H32.4152V30.1892H37.8416V16.9655H43.3753V12.6309H26.8833V16.9655H26.8816ZM14.8178 30.1892H28.7125V25.8647H20.2442V12.6309H14.8178V30.1892ZM8.0442 57.815C8.03228 57.6873 8.02376 57.5391 8.01865 57.3722C8.01354 57.2053 8.01014 57.069 8.01014 56.9634V53.8585H7.22496V55.9619C7.22496 56.3571 7.12788 56.6722 6.93371 56.9089C6.73955 57.1457 6.48237 57.2632 6.16557 57.2632C5.98163 57.2632 5.83175 57.2291 5.71423 57.1627C5.59671 57.0963 5.50473 57.0077 5.43831 56.8953C5.37188 56.7846 5.3259 56.6551 5.30035 56.507C5.2748 56.3588 5.26288 56.2055 5.26288 56.0437V53.8568H4.47771V56.3111C4.47771 56.5342 4.50666 56.742 4.56457 56.9362C4.62248 57.1303 4.71275 57.3024 4.83197 57.4488C4.95119 57.597 5.10448 57.7111 5.29183 57.7946C5.47748 57.878 5.6989 57.9206 5.95608 57.9206C6.24562 57.9206 6.50792 57.8474 6.74466 57.6992C6.9814 57.551 7.15002 57.3722 7.24881 57.161H7.26584C7.26584 57.2444 7.26924 57.3484 7.27435 57.4744C7.27946 57.6004 7.28798 57.7128 7.2999 57.8116H8.0442V57.815ZM13.6852 55.3624C13.6852 55.1393 13.6562 54.9315 13.5983 54.7356C13.5404 54.5415 13.4501 54.3712 13.3275 54.2264C13.2049 54.0816 13.0516 53.9658 12.8677 53.8806C12.6837 53.7938 12.464 53.7512 12.2085 53.7512C12.0637 53.7512 11.9241 53.7699 11.7912 53.8091C11.6584 53.8483 11.5358 53.9028 11.4233 53.9726C11.3126 54.0424 11.2139 54.1225 11.127 54.2145C11.0401 54.3064 10.972 54.4052 10.9226 54.5108H10.8971C10.8971 54.4274 10.8936 54.3235 10.8885 54.1974C10.8834 54.0731 10.8749 53.959 10.863 53.8602H10.1204C10.1306 53.9879 10.1391 54.1361 10.1459 54.303C10.1511 54.4699 10.1545 54.6062 10.1545 54.7118V57.8167H10.9396V55.7116C10.9396 55.3164 11.0384 55.0013 11.236 54.7646C11.4336 54.5279 11.6873 54.4103 11.999 54.4103C12.183 54.4103 12.3328 54.4444 12.4504 54.5108C12.5679 54.5772 12.6582 54.6675 12.7263 54.7782C12.7927 54.8889 12.8387 55.0167 12.8642 55.1614C12.8898 55.3062 12.9017 55.4595 12.9017 55.6196V57.815H13.6869V55.3624H13.6852ZM16.5891 53.8602H15.8057V57.8167H16.5908V53.8602H16.5891ZM16.7152 52.4329C16.7152 52.2882 16.6641 52.1672 16.5619 52.0701C16.4597 51.9731 16.3371 51.9237 16.194 51.9237C16.0509 51.9237 15.9283 51.9731 15.8295 52.0701C15.7307 52.1672 15.6796 52.2882 15.6796 52.4329C15.6796 52.5726 15.729 52.6901 15.8295 52.7872C15.9283 52.8843 16.0509 52.9337 16.194 52.9337C16.3371 52.9337 16.4597 52.886 16.5619 52.7923C16.6641 52.6969 16.7152 52.5777 16.7152 52.4329ZM22.1893 53.8602H21.3547L20.1863 56.9736H20.1693L19.0094 53.8602H18.1408L19.752 57.8167H20.6036L22.1893 53.8602ZM23.3423 47.2518C23.9657 46.3014 24.2774 45.2642 24.2774 44.1384C24.2774 43.1795 24.044 42.3142 23.5774 41.5393C23.1107 40.7643 22.363 40.1154 21.3377 39.5925C20.3123 39.0696 18.6125 38.5519 16.2417 38.0409C15.2828 37.8416 14.6764 37.6253 14.421 37.3937C14.157 37.1706 14.0258 36.9185 14.0258 36.6392C14.0258 36.256 14.1859 35.9306 14.5044 35.6632C14.8229 35.3958 15.2981 35.2613 15.93 35.2613C16.6964 35.2613 17.2977 35.4401 17.732 35.7995C18.168 36.1589 18.4524 36.7346 18.5887 37.5248L23.7034 37.2251C23.4803 35.4044 22.7786 34.0776 21.6016 33.243C20.423 32.4084 18.713 31.9911 16.4699 31.9911C14.6407 31.9911 13.2015 32.2211 12.1523 32.6792C11.1014 33.1391 10.3163 33.7693 9.79338 34.5715C9.2705 35.3737 9.00821 36.227 9.00821 37.128C9.00821 38.5008 9.51917 39.6317 10.5411 40.5174C11.5545 41.4047 13.2526 42.115 15.6319 42.6498C17.0848 42.97 18.0113 43.3089 18.4116 43.6683C18.8101 44.0276 19.0111 44.4347 19.0111 44.8895C19.0111 45.3681 18.8016 45.7905 18.3826 46.1532C17.9636 46.516 17.3658 46.6983 16.5925 46.6983C15.5536 46.6983 14.7565 46.344 14.1979 45.6321C13.8538 45.1926 13.6273 44.5539 13.5149 43.716L8.34567 44.0413C8.49725 45.8143 9.14787 47.2756 10.2975 48.4253C11.4472 49.575 13.5149 50.1506 16.5023 50.1506C18.2021 50.1506 19.6123 49.9054 20.7296 49.4149C21.8486 48.9226 22.7189 48.2022 23.3423 47.2518ZM27.4317 55.8036C27.4317 55.4868 27.3874 55.2006 27.2971 54.9485C27.2086 54.6948 27.0808 54.4802 26.9173 54.3013C26.7538 54.1225 26.5528 53.9862 26.3144 53.8926C26.0777 53.7972 25.8137 53.7512 25.5241 53.7512C25.2346 53.7512 24.9638 53.8023 24.7134 53.9062C24.463 54.0084 24.245 54.1531 24.0611 54.3354C23.8771 54.5176 23.7341 54.7408 23.6302 54.9996C23.5263 55.2585 23.4752 55.5413 23.4752 55.8461C23.4752 56.1578 23.528 56.4422 23.6336 56.6977C23.7392 56.9532 23.8839 57.1729 24.0679 57.3535C24.2518 57.534 24.4715 57.6754 24.727 57.7741C24.9825 57.8746 25.2618 57.924 25.5616 57.924C25.9124 57.924 26.2309 57.8576 26.5171 57.7248C26.8032 57.5919 27.0519 57.3858 27.2648 57.1048L26.7146 56.662C26.6039 56.8289 26.4506 56.9702 26.2548 57.0878C26.0606 57.2053 25.829 57.2632 25.5616 57.2632C25.3896 57.2632 25.2261 57.2325 25.0728 57.1712C24.9195 57.1099 24.7849 57.0264 24.6674 56.9191C24.5499 56.8118 24.4579 56.6841 24.3881 56.5376C24.3182 56.3912 24.2808 56.2345 24.2757 56.0692H27.4215C27.4266 56.025 27.43 55.9807 27.43 55.9364C27.4317 55.8938 27.4317 55.8495 27.4317 55.8036ZM31.5875 53.7853C31.504 53.7631 31.4018 53.7512 31.2792 53.7512C31.0118 53.7512 30.7717 53.8227 30.5571 53.9641C30.3425 54.1055 30.1807 54.2945 30.0682 54.5279H30.0427C30.0427 54.4444 30.0393 54.3371 30.0342 54.206C30.0291 54.0748 30.0206 53.959 30.0086 53.8602H29.266C29.2763 53.9879 29.2848 54.1361 29.2916 54.303C29.2967 54.4699 29.3001 54.6062 29.3001 54.7118V57.8167H30.0853V55.7388C30.0853 55.5719 30.1074 55.4118 30.1517 55.2585C30.196 55.1052 30.2641 54.9707 30.3561 54.8532C30.4481 54.7356 30.5639 54.6437 30.7018 54.5738C30.8415 54.504 31.005 54.4699 31.1941 54.4699C31.3218 54.4699 31.441 54.4836 31.5534 54.5125L31.5875 53.7853ZM32.1547 42.7485H38.0835V49.8509H43.5337V32.2926H38.0835V38.4378H32.1547V32.2926H26.7283V49.8509H32.1547V42.7485ZM35.8182 56.6466C35.8182 56.4746 35.7842 56.3247 35.7177 56.1953C35.6513 56.0675 35.5576 55.9568 35.4384 55.8649C35.3192 55.7729 35.1778 55.6962 35.0177 55.6349C34.8559 55.5736 34.6805 55.5208 34.4914 55.4765C34.1917 55.4101 33.9652 55.3369 33.8153 55.2551C33.6654 55.1751 33.5905 55.0507 33.5905 54.8838C33.5905 54.7884 33.6109 54.7101 33.6535 54.6454C33.696 54.5807 33.7506 54.5279 33.8204 54.487C33.8902 54.4461 33.9686 54.4154 34.0588 54.395C34.1474 54.3763 34.236 54.3661 34.3262 54.3661C34.5272 54.3661 34.7077 54.412 34.8679 54.504C35.028 54.596 35.154 54.7135 35.2443 54.8583L35.7876 54.4001C35.6428 54.1889 35.4384 54.0271 35.1744 53.9164C34.9104 53.8057 34.6362 53.7495 34.3518 53.7495C34.1627 53.7495 33.9788 53.7733 33.8017 53.821C33.6228 53.8687 33.4644 53.9403 33.3265 54.0373C33.1868 54.1344 33.0744 54.2605 32.9892 54.4137C32.9024 54.567 32.8598 54.7493 32.8598 54.9605C32.8598 55.1444 32.8938 55.2977 32.9637 55.4237C33.0335 55.5498 33.1238 55.6537 33.2345 55.7371C33.3452 55.8206 33.4695 55.8853 33.6058 55.933C33.742 55.9807 33.8766 56.0199 34.0111 56.0539C34.3501 56.1323 34.6073 56.2157 34.7827 56.3043C34.9581 56.3929 35.045 56.5291 35.045 56.7131C35.045 56.8238 35.0228 56.9157 34.9786 56.989C34.9343 57.0605 34.8747 57.1201 34.7997 57.1644C34.7248 57.2087 34.6413 57.241 34.5494 57.2598C34.4574 57.2785 34.362 57.2887 34.2615 57.2887C34.0384 57.2887 33.834 57.2359 33.6484 57.1303C33.461 57.0247 33.3162 56.8936 33.2106 56.7386L32.652 57.2138C32.841 57.4522 33.0795 57.6311 33.3656 57.7486C33.6518 57.8661 33.9464 57.924 34.2462 57.924C34.4472 57.924 34.6413 57.9019 34.8304 57.8576C35.0194 57.8133 35.1881 57.7401 35.3345 57.6362C35.4827 57.534 35.6002 57.4011 35.6888 57.2393C35.7739 57.0775 35.8182 56.8817 35.8182 56.6466ZM38.3884 53.8602H37.6032V57.8167H38.3884V53.8602ZM38.5144 52.4329C38.5144 52.2882 38.4633 52.1672 38.3611 52.0701C38.2589 51.9731 38.1363 51.9237 37.9932 51.9237C37.8502 51.9237 37.7275 51.9731 37.6287 52.0701C37.5299 52.1672 37.4789 52.2882 37.4789 52.4329C37.4789 52.5726 37.5282 52.6901 37.6287 52.7872C37.7275 52.8843 37.8502 52.9337 37.9932 52.9337C38.1363 52.9337 38.2589 52.886 38.3611 52.7923C38.4633 52.6969 38.5144 52.5777 38.5144 52.4329ZM42.4777 53.8602H41.4269V52.7259H40.6502V53.8602H39.8906V54.5023H40.6502V56.6466C40.6502 57.0588 40.749 57.3671 40.9466 57.5732C41.1441 57.7793 41.4286 57.8814 41.8016 57.8814C41.9242 57.8814 42.0417 57.8712 42.1558 57.8525C42.2699 57.8338 42.3738 57.8065 42.4692 57.7724L42.4437 57.1303C42.3772 57.161 42.3023 57.1831 42.2188 57.1985C42.1354 57.2138 42.057 57.2206 41.9855 57.2206C41.7913 57.2206 41.6483 57.1695 41.5597 57.0673C41.4711 56.9651 41.4269 56.7948 41.4269 56.5564V54.5023H42.4777V53.8602ZM45.5912 56.9651H45.5741L44.3478 53.8602H43.4724L45.1671 57.8167L44.9167 58.4759C44.8333 58.6871 44.7413 58.8506 44.6408 58.9647C44.5403 59.0788 44.387 59.135 44.1826 59.135C44.0549 59.135 43.9237 59.1129 43.7909 59.0686L43.716 59.7618C43.8045 59.7839 43.8931 59.7992 43.9782 59.8078C44.0651 59.8163 44.1486 59.8197 44.2337 59.8197C44.4279 59.8197 44.5965 59.7941 44.7379 59.7447C44.8792 59.6954 45.0036 59.6238 45.1092 59.5318C45.2148 59.4399 45.3067 59.3292 45.3851 59.198C45.4634 59.0669 45.535 58.9187 45.6014 58.7518L47.5192 53.8602H46.6846L45.5912 56.9651ZM0.974229 23.4939H4.83027L2.89203 17.1819L0.974229 23.4939Z" fill="#EA5B13"></path> </svg><style>@media (prefers-color-scheme: light) { :root { filter: contrast(1) brightness(0.8); } }
</style></svg>